<svg xmlns="http://www.w3.org/2000/svg" width="45" height="34"><path fill="#131313" d="M15.151 0L9.483 9.152 3.818 0H0v19.354h3.815V6.829l5.447 8.958h.442l5.447-8.986z"/><path fill="#313131" d="M28.916 9.946h-2.168V4.944h-3.652v5.002h-3.855V0h-3.779l.003 13.839h7.631v5.484h3.652v-5.484h2.168z"/><path fill="#131313" d="M30.611 14.156l-5.668 9.152-5.665-9.152H15.46V33.51h3.815V20.985l5.447 8.958h.442l5.447-8.986z"/><path fill="#313131" d="M37.55 33.54c4.603 0 7.449-3.013 7.449-7.058 0-3.738-2.399-6.305-6.138-6.305-1.59 0-3.069.446-4.045 1.507v-4.045h9.179V14.15H30.922l.003 11.048h3.807c.558-1.311 1.562-1.869 3.069-1.869 1.786 0 2.874 1.311 2.874 3.236 0 2.037-1.144 3.348-3.125 3.348-1.507 0-2.706-.753-2.846-2.12h-3.782c.251 3.515 2.387 5.747 6.628 5.747z"/></svg>